<?xml version="1.0" standalone="no"?>
<!DOCTYPE svg PUBLIC "-//W3C//DTD SVG 20010904//EN"
 "http://www.w3.org/TR/2001/REC-SVG-20010904/DTD/svg10.dtd">
<svg version="1.0" xmlns="http://www.w3.org/2000/svg"
 width="512.000000pt" height="512.000000pt" viewBox="0 0 512.000000 512.000000"
 preserveAspectRatio="xMidYMid meet">
<metadata>
Created by potrace 1.16, written by Peter Selinger 2001-2019
</metadata>
<g transform="translate(0.000000,512.000000) scale(0.100000,-0.100000)"
fill="#000000" stroke="none">
<path d="M451 5104 c-199 -53 -384 -239 -436 -440 -19 -75 -20 -242 0 -317 85
-328 424 -530 749 -447 219 56 394 230 450 447 20 77 21 240 1 313 -56 211
-234 391 -441 444 -77 20 -249 20 -323 0z"/>
<path d="M3676 3499 c-337 -44 -632 -223 -805 -489 l-36 -55 -3 233 -2 232
-510 0 -510 0 0 -1710 0 -1710 535 0 535 0 0 941 c0 1020 2 1059 55 1228 83
260 272 391 564 391 176 0 278 -36 374 -132 70 -69 120 -169 150 -302 21 -89
21 -119 24 -1108 l4 -1018 535 0 535 0 -4 1148 c-3 994 -5 1161 -19 1252 -26
164 -47 257 -83 367 -151 455 -451 681 -974 733 -120 12 -267 11 -365 -1z"/>
<path d="M80 1710 l0 -1710 535 0 535 0 0 1710 0 1710 -535 0 -535 0 0 -1710z"/>
</g>
</svg>
