<?xml version="1.0" standalone="no"?>
<!DOCTYPE svg PUBLIC "-//W3C//DTD SVG 20010904//EN"
 "http://www.w3.org/TR/2001/REC-SVG-20010904/DTD/svg10.dtd">
<svg version="1.0" xmlns="http://www.w3.org/2000/svg"
 width="512.000000pt" height="512.000000pt" viewBox="0 0 512.000000 512.000000"
 preserveAspectRatio="xMidYMid meet">
<metadata>
Created by potrace 1.16, written by Peter Selinger 2001-2019
</metadata>
<g transform="translate(0.000000,512.000000) scale(0.100000,-0.100000)"
fill="#000000" stroke="none">
<path d="M60 4543 c1 -48 2 -49 255 -353 140 -168 261 -319 269 -336 14 -28
16 -174 16 -1243 0 -1176 0 -1213 -19 -1254 -10 -23 -146 -195 -300 -381
l-281 -339 0 -49 0 -48 765 0 765 0 0 46 c0 45 -4 50 -286 391 -158 191 -295
365 -305 389 -18 40 -19 83 -17 1045 l3 1002 660 -1437 660 -1437 85 3 85 3
525 1330 c289 732 544 1378 567 1435 l42 105 1 -1175 1 -1175 -226 -220 -225
-220 0 -47 0 -48 1010 0 1010 0 0 43 c0 42 -2 44 -211 252 -116 116 -217 219
-225 230 -12 16 -14 243 -14 1503 0 1367 1 1486 17 1510 9 15 110 116 225 226
l208 198 0 49 0 49 -711 -2 -711 -3 -494 -1230 c-272 -676 -497 -1237 -501
-1247 -6 -11 -183 367 -578 1233 l-570 1249 -747 0 -748 0 0 -47z"/>
</g>
</svg>
