<?xml version="1.0" standalone="no"?>
<!DOCTYPE svg PUBLIC "-//W3C//DTD SVG 20010904//EN"
 "http://www.w3.org/TR/2001/REC-SVG-20010904/DTD/svg10.dtd">
<svg version="1.0" xmlns="http://www.w3.org/2000/svg"
 width="512.000000pt" height="512.000000pt" viewBox="0 0 512.000000 512.000000"
 preserveAspectRatio="xMidYMid meet">
<metadata>
Created by potrace 1.16, written by Peter Selinger 2001-2019
</metadata>
<g transform="translate(0.000000,512.000000) scale(0.100000,-0.100000)"
fill="#000000" stroke="none">
<path d="M2300 5100 c-19 -19 -20 -33 -20 -200 l0 -180 -235 0 c-212 0 -240
-2 -273 -19 -20 -10 -45 -27 -54 -38 -23 -25 -48 -86 -48 -118 l0 -25 -549 0
c-540 0 -549 0 -575 -21 l-26 -20 0 -890 c0 -876 0 -889 20 -909 26 -26 80
-26 111 -1 l24 19 3 831 2 831 495 0 495 0 0 -27 c1 -63 55 -140 113 -162 19
-8 271 -11 777 -11 506 0 758 3 777 11 58 22 112 99 113 162 l0 27 495 0 495
0 0 -93 c0 -103 11 -153 37 -173 26 -20 67 -17 97 7 l26 20 0 179 0 179 -26
20 c-26 21 -35 21 -575 21 l-549 0 0 25 c0 32 -25 93 -48 118 -9 11 -34 28
-54 38 -33 17 -61 19 -273 19 l-235 0 0 180 c0 167 -1 181 -20 200 -19 19 -33
20 -260 20 -227 0 -241 -1 -260 -20z m380 -255 l0 -125 -120 0 -120 0 0 125 0
125 120 0 120 0 0 -125z m605 -405 l0 -115 -725 0 -725 0 -3 104 c-1 58 0 111
2 118 5 11 136 13 728 11 l723 -3 0 -115z"/>
<path d="M4473 3866 l-28 -24 -3 -1051 -2 -1051 -295 0 -295 0 0 32 c0 53 -37
115 -84 143 -43 25 -43 25 -319 25 l-276 0 -20 -26 c-24 -30 -26 -52 -10 -87
20 -43 45 -47 305 -47 l245 0 -3 -117 -3 -118 -1125 0 -1125 0 -3 118 -3 117
720 0 c506 0 727 3 744 11 47 21 60 80 26 123 l-20 26 -751 0 -750 0 -40 -22
c-48 -28 -88 -91 -88 -141 l0 -37 -295 0 -294 0 -3 341 -3 341 -24 19 c-31 25
-85 25 -111 -1 -19 -19 -20 -33 -20 -419 l0 -400 26 -20 c26 -20 38 -21 375
-21 l349 0 0 -29 c0 -41 17 -81 48 -115 44 -46 79 -56 207 -56 63 0 115 -2
115 -5 0 -2 -63 -292 -140 -643 -77 -351 -140 -650 -140 -665 0 -15 9 -36 20
-47 19 -19 33 -20 226 -20 120 0 213 4 224 10 24 13 17 -15 164 655 69 314
132 603 141 643 l17 72 79 0 79 0 0 -670 c0 -657 0 -670 20 -690 19 -19 33
-20 230 -20 197 0 211 1 230 20 20 20 20 33 20 690 l0 670 79 0 79 0 17 -73
c9 -39 72 -328 141 -642 147 -670 140 -642 164 -655 11 -6 104 -10 224 -10
193 0 207 1 226 20 11 11 20 32 20 47 0 15 -63 314 -140 665 -77 351 -140 641
-140 643 0 3 52 5 115 5 128 0 163 10 207 56 31 34 48 74 48 115 l0 29 349 0
c337 0 349 1 375 21 l26 20 0 1114 0 1114 -26 20 c-35 28 -67 26 -101 -3z
m-2493 -2498 c0 -7 -59 -284 -132 -615 l-132 -603 -88 0 c-48 0 -88 2 -88 5 0
8 260 1199 265 1213 6 17 175 17 175 0z m670 -603 l0 -615 -90 0 -90 0 0 615
0 615 90 0 90 0 0 -615z m791 30 c70 -319 130 -595 134 -612 l6 -33 -89 0 -88
0 -132 603 c-73 331 -132 608 -132 615 0 10 22 12 87 10 l87 -3 127 -580z"/>
</g>
</svg>
