<?xml version="1.0" standalone="no"?>
<!DOCTYPE svg PUBLIC "-//W3C//DTD SVG 20010904//EN"
 "http://www.w3.org/TR/2001/REC-SVG-20010904/DTD/svg10.dtd">
<svg version="1.0" xmlns="http://www.w3.org/2000/svg"
 width="512.000000pt" height="512.000000pt" viewBox="0 0 512.000000 512.000000"
 preserveAspectRatio="xMidYMid meet">
<metadata>
Created by potrace 1.16, written by Peter Selinger 2001-2019
</metadata>
<g transform="translate(0.000000,512.000000) scale(0.100000,-0.100000)"
fill="#000000" stroke="none">
<path d="M0 2560 l0 -2560 2560 0 2560 0 0 2560 0 2560 -2560 0 -2560 0 0
-2560z m4820 0 l0 -2260 -2260 0 -2260 0 0 2260 0 2260 2260 0 2260 0 0 -2260z"/>
<path d="M1400 2455 l0 -855 170 0 170 0 0 285 0 285 243 0 c193 0 255 3 298
16 192 56 340 224 385 434 62 291 -135 608 -418 675 -50 12 -145 15 -455 15
l-393 0 0 -855z m765 544 c57 -16 129 -93 149 -160 33 -109 12 -230 -52 -301
-58 -65 -74 -68 -312 -68 l-210 0 0 270 0 270 193 0 c108 0 210 -5 232 -11z"/>
<path d="M3265 2883 c-271 -32 -431 -170 -443 -382 -12 -201 93 -298 409 -381
172 -45 247 -76 284 -116 49 -52 25 -127 -52 -165 -117 -58 -344 -8 -521 113
-24 17 -45 28 -46 26 -2 -1 -30 -49 -64 -105 l-61 -102 39 -31 c21 -17 73 -48
117 -69 353 -176 787 -110 900 136 34 74 42 190 18 262 -43 130 -174 214 -439
281 -234 60 -283 92 -273 180 7 59 45 94 122 111 97 22 225 -11 359 -92 37
-22 69 -39 70 -37 22 26 126 190 126 197 0 12 -82 72 -136 99 -70 36 -166 62
-264 72 -52 5 -99 9 -105 8 -5 0 -23 -3 -40 -5z"/>
</g>
</svg>
